<?xml version="1.0" encoding="UTF-8" standalone="no"?>
<svg
   xmlns:osb="http://www.openswatchbook.org/uri/2009/osb"
   xmlns:dc="http://purl.org/dc/elements/1.1/"
   xmlns:cc="http://creativecommons.org/ns#"
   xmlns:rdf="http://www.w3.org/1999/02/22-rdf-syntax-ns#"
   xmlns:svg="http://www.w3.org/2000/svg"
   xmlns="http://www.w3.org/2000/svg"
   xmlns:xlink="http://www.w3.org/1999/xlink"
   xmlns:sodipodi="http://sodipodi.sourceforge.net/DTD/sodipodi-0.dtd"
   xmlns:inkscape="http://www.inkscape.org/namespaces/inkscape"
   inkscape:version="1.0 (4035a4fb49, 2020-05-01)"
   sodipodi:docname="logo-contour.svg"
   id="svg8"
   version="1.1"
   viewBox="0 0 210 297"
   height="297mm"
   width="210mm">
  <defs
     id="defs2">
    <linearGradient
       id="linearGradient2907"
       inkscape:collect="always">
      <stop
         id="stop2903"
         offset="0"
         style="stop-color:#a52a2a;stop-opacity:1;" />
      <stop
         id="stop2905"
         offset="1"
         style="stop-color:#a52a2a;stop-opacity:0;" />
    </linearGradient>
    <linearGradient
       osb:paint="solid"
       id="linearGradient2846">
      <stop
         id="stop2844"
         offset="0"
         style="stop-color:#000000;stop-opacity:1;" />
    </linearGradient>
    <linearGradient
       osb:paint="solid"
       id="linearGradient2834">
      <stop
         id="stop2832"
         offset="0"
         style="stop-color:#000000;stop-opacity:1;" />
    </linearGradient>
    <linearGradient
       osb:paint="solid"
       id="linearGradient2828">
      <stop
         id="stop2826"
         offset="0"
         style="stop-color:#053b00;stop-opacity:1;" />
    </linearGradient>
    <inkscape:perspective
       id="perspective67"
       inkscape:persp3d-origin="105 : 99 : 1"
       inkscape:vp_z="210 : 148.5 : 1"
       inkscape:vp_y="0 : 1000 : 0"
       inkscape:vp_x="0 : 148.5 : 1"
       sodipodi:type="inkscape:persp3d" />
    <radialGradient
       gradientUnits="userSpaceOnUse"
       gradientTransform="matrix(1,0,0,0.25231561,0,24.873601)"
       r="12.420955"
       fy="33.267514"
       fx="47.208802"
       cy="33.267514"
       cx="47.208802"
       id="radialGradient2909"
       xlink:href="#linearGradient2907"
       inkscape:collect="always" />
    <clipPath
       id="clipPath3097"
       clipPathUnits="userSpaceOnUse">
      <path
         d="m 285.94727,483.29492 v 402.52539 h 364.92382 v -74.55469 c -19.51158,-2.49006 -45.07493,-6.39497 -60.92187,-7.22265 -5.8402,-0.30501 -11.65988,1.35165 -17.50586,1.19141 -5.31118,-0.14563 -10.53217,-1.40369 -15.79883,-2.10547 -5.70263,-3.28993 -12.1291,-5.56101 -17.10742,-9.86914 -20.45118,-17.69813 -53.67345,-59.1391 -68.51172,-77.19727 -36.13791,-43.97972 -71.71537,-88.55764 -103.37695,-135.91992 -6.91003,-10.33666 -2.85176,-19.03606 3.73242,-19.3457 3.44886,-0.1622 7.59067,1.97603 11.21289,7.38867 31.66915,47.32278 67.19532,91.89698 103.32031,135.85156 15.17458,18.46348 46.71342,57.9127 67.375,75.91406 3.54199,3.08595 8.37285,4.26377 12.5586,6.39649 7.59775,0.70684 15.11298,-1.7882 22.67578,-1.39063 25.32021,1.33118 40.87025,4.35763 62.34765,7.07813 V 483.29492 Z"
         style="fill:#ff0000;fill-opacity:1;fill-rule:nonzero;stroke:none"
         id="path3099" />
    </clipPath>
    <clipPath
       id="clipPath3107"
       clipPathUnits="userSpaceOnUse">
      <path
         d="M 223.29492,731.30273 V 1035.043 H 643.20117 V 810.26562 c -18.18198,-2.42995 -39.40878,-5.49963 -53.25195,-6.22265 -5.8402,-0.30501 -11.65988,1.35165 -17.50586,1.19141 -5.31118,-0.14563 -10.53217,-1.40369 -15.79883,-2.10547 -5.70263,-3.28993 -12.1291,-5.56101 -17.10742,-9.86914 -15.91874,-13.77583 -39.32011,-41.63529 -56.02149,-61.95704 z m 285.0586,0 c 14.78392,17.67932 31.9917,37.37114 44.93554,48.64844 3.54199,3.08595 8.37285,4.26377 12.5586,6.39649 7.59775,0.70684 15.11298,-1.7882 22.67578,-1.39063 22.21916,1.16815 36.91697,3.64821 54.67773,6.07617 v -59.73047 z"
         style="fill:#ff0000;fill-opacity:1;fill-rule:nonzero;stroke:none"
         id="path3109" />
    </clipPath>
    <clipPath
       id="clipPath3117"
       clipPathUnits="userSpaceOnUse">
      <path
         d="m 597.14258,386.62891 v 398.8789 c 20.43282,1.50455 34.80873,4.13082 53.72851,6.52735 V 386.62891 Z m 0,417.9375 V 1035.043 h 53.72851 V 811.26562 c -16.78607,-2.14223 -38.0022,-5.31767 -53.72851,-6.69921 z"
         style="fill:#ff0000;fill-opacity:1;fill-rule:nonzero;stroke:none"
         id="path3119" />
    </clipPath>
    <clipPath
       id="clipPath3127"
       clipPathUnits="userSpaceOnUse">
      <path
         d="M 216.64844,386.62891 V 1035.043 H 597.14258 V 804.56641 c -2.55343,-0.22432 -4.97976,-0.40783 -7.19336,-0.52344 -5.8402,-0.30501 -11.65988,1.35165 -17.50586,1.19141 -5.31118,-0.14563 -10.53217,-1.40369 -15.79883,-2.10547 -5.70263,-3.28993 -12.1291,-5.56101 -17.10742,-9.86914 -20.45118,-17.69813 -53.67345,-59.1391 -68.51172,-77.19727 -36.13791,-43.97972 -71.71537,-88.55764 -103.37695,-135.91992 -6.91003,-10.33666 -2.85176,-19.03606 3.73242,-19.3457 3.44886,-0.1622 7.59067,1.97603 11.21289,7.38867 31.66915,47.32278 67.19532,91.89698 103.32031,135.85156 15.17458,18.46348 46.71342,57.9127 67.375,75.91406 3.54199,3.08595 8.37285,4.26377 12.5586,6.39649 7.59775,0.70684 15.11298,-1.7882 22.67578,-1.39063 3.01524,0.15852 5.85698,0.34739 8.61914,0.55078 v -398.8789 z"
         style="fill:#ff0000;fill-opacity:1;fill-rule:nonzero;stroke:none"
         id="path3129" />
    </clipPath>
    <clipPath
       id="clipPath3139"
       clipPathUnits="userSpaceOnUse">
      <path
         d="M 17.142578,311.42773 V 520.57617 H 783.08203 c -0.67073,-2.74259 -1.3702,-5.48281 -2.12305,-8.21679 -2.67217,-9.70412 1.43434,-15.01991 6.61914,-15.13086 1.98981,-0.0426 4.13764,0.68401 6.12305,2.2207 V 311.42773 Z"
         style="fill:#ff0000;fill-opacity:1;fill-rule:nonzero;stroke:none"
         id="path3141" />
    </clipPath>
  </defs>
  <sodipodi:namedview
     inkscape:guide-bbox="true"
     showguides="true"
     inkscape:snap-bbox-midpoints="true"
     inkscape:snap-bbox-edge-midpoints="true"
     inkscape:bbox-paths="true"
     inkscape:bbox-nodes="true"
     inkscape:snap-bbox="true"
     inkscape:snap-center="true"
     inkscape:snap-text-baseline="true"
     inkscape:snap-page="true"
     inkscape:lockguides="false"
     inkscape:snap-object-midpoints="false"
     inkscape:snap-smooth-nodes="false"
     inkscape:snap-midpoints="false"
     inkscape:window-maximized="1"
     inkscape:window-y="-8"
     inkscape:window-x="-8"
     inkscape:window-height="705"
     inkscape:window-width="1366"
     showgrid="false"
     inkscape:document-rotation="0"
     inkscape:current-layer="layer1"
     inkscape:document-units="mm"
     inkscape:cy="408.14935"
     inkscape:cx="396.85039"
     inkscape:zoom="0.2786611"
     inkscape:pageshadow="2"
     inkscape:pageopacity="0.0"
     borderopacity="1.0"
     bordercolor="#666666"
     pagecolor="#ffffff"
     id="base">
    <sodipodi:guide
       id="guide3143"
       orientation="-0.70710678,-0.70710678"
       position="726.15043,387.13584" />
  </sodipodi:namedview>
  <metadata
     id="metadata5">
    <rdf:RDF>
      <cc:Work
         rdf:about="">
        <dc:format>image/svg+xml</dc:format>
        <dc:type
           rdf:resource="http://purl.org/dc/dcmitype/StillImage" />
        <dc:title></dc:title>
      </cc:Work>
    </rdf:RDF>
  </metadata>
  <g
     id="layer1"
     inkscape:groupmode="layer"
     inkscape:label="Calque 1">
    <g
       id="g2936" />
    <g
       transform="matrix(0.98812273,0,0,1.094523,2.4667991,-5.1050991)"
       id="g2949">
      <text
         transform="matrix(5.7648753,0,0,5.9890136,-143.25636,-152.49896)"
         id="text12"
         y="35.529758"
         x="34.773811"
         style="font-style:normal;font-variant:normal;font-weight:normal;font-stretch:normal;font-size:7.2046px;line-height:1.25;font-family:'Ink Free';-inkscape-font-specification:'Ink Free, Normal';font-variant-ligatures:normal;font-variant-caps:normal;font-variant-numeric:normal;font-variant-east-asian:normal;white-space:pre;inline-size:47.4765;mix-blend-mode:normal;fill:#000000;fill-opacity:1;fill-rule:evenodd;stroke:none;stroke-width:0.264641;stroke-miterlimit:4;stroke-dasharray:none;stroke-opacity:1"
         xml:space="preserve"><tspan
           x="34.773811"
           y="35.529758"><tspan
             style="font-style:normal;font-variant:normal;font-weight:normal;font-stretch:normal;font-size:7.2046px;font-family:'Ink Free';-inkscape-font-specification:'Ink Free, Normal';font-variant-ligatures:normal;font-variant-caps:normal;font-variant-numeric:normal;font-variant-east-asian:normal;fill:#000000;fill-opacity:1;fill-rule:evenodd;stroke:none;stroke-width:0.264641;stroke-miterlimit:4;stroke-dasharray:none;stroke-opacity:1">Abravi's</tspan></tspan></text>
      <g
         id="g2939">
        <ellipse
           ry="20.410717"
           rx="21.166668"
           cy="46.635292"
           cx="29.503023"
           id="path31"
           style="fill:#ff0000;fill-rule:evenodd;stroke-width:0.264714" />
      </g>
      <text
         xml:space="preserve"
         style="font-style:normal;font-variant:normal;font-weight:normal;font-stretch:normal;font-size:18.8277px;line-height:1.25;font-family:'Bookman Old Style';-inkscape-font-specification:'Bookman Old Style, Normal';font-variant-ligatures:normal;font-variant-caps:normal;font-variant-numeric:normal;font-variant-east-asian:normal;fill:#ffffff;fill-opacity:1;stroke:none;stroke-width:0.631747"
         x="20.02463"
         y="41.928814"
         id="text35"
         transform="scale(0.75565251,1.3233596)"><tspan
           sodipodi:role="line"
           id="tspan33"
           x="20.02463"
           y="41.928814"
           style="font-style:normal;font-variant:normal;font-weight:normal;font-stretch:normal;font-size:18.8277px;font-family:'Bookman Old Style';-inkscape-font-specification:'Bookman Old Style, Normal';font-variant-ligatures:normal;font-variant-caps:normal;font-variant-numeric:normal;font-variant-east-asian:normal;fill:#ffffff;stroke-width:0.631747">AET</tspan></text>
    </g>
    <path
       transform="scale(0.26458333)"
       id="path39"
       d="m 88.43826,250.03862 c -31.006868,-12.29771 -52.646641,-44.0984 -52.696063,-77.43941 -0.06882,-46.43039 37.51296,-83.201294 85.423253,-83.58013 33.10342,-0.261755 64.67574,18.92842 78.86863,47.93765 18.91344,38.65766 3.2062,86.58086 -35.49539,108.29743 -20.5393,11.52519 -53.82785,13.61805 -76.10043,4.78446 z M 75.714286,211.42857 c 0,-2.35714 -1.285715,-4.28571 -2.857143,-4.28571 -1.571429,0 -2.857143,-4.5854 -2.857143,-10.18978 0,-9.43053 0.585443,-10.12242 7.857143,-9.28571 6.264551,0.72081 8.047197,2.5672 8.794794,9.10926 0.515706,4.51287 -0.44858,9.59144 -2.142857,11.28572 -6.400854,6.40085 -2.291509,7.65194 25.13378,7.65194 h 28.21428 l 1.78572,-8.92858 c 2.47749,-12.38748 2.23257,-25.35714 -0.47885,-25.35714 -1.2455,0 -3.812,5.78572 -5.70332,12.85714 -2.62552,9.81654 -4.79273,12.85715 -9.16401,12.85715 -5.12288,0 -5.72065,-1.87881 -5.6815,-17.85715 0.0308,-12.58377 0.86165,-16.59153 2.81339,-13.57142 1.5233,2.35714 2.78933,7.17857 2.81339,10.71428 0.0241,3.53572 1.32947,6.42857 2.9009,6.42857 1.65079,0 2.85714,-9.04762 2.85714,-21.42857 C 130,159.04762 128.79365,150 127.14286,150 c -1.57143,0 -2.87683,2.25 -2.9009,5 -0.0241,2.75 -1.29009,6.92857 -2.81339,9.28571 -1.95174,3.02011 -2.78256,-0.98765 -2.81339,-13.57142 -0.0338,-13.79754 0.9077,-17.85715 4.14144,-17.85715 4.91109,0 10.10052,8.62449 10.10052,16.78641 0,3.15342 1.28572,6.52811 2.85715,7.49931 1.77388,1.09632 2.85714,-4.25605 2.85714,-14.1171 v -15.8829 H 120 c -10.21429,0 -18.57143,0.73469 -18.57143,1.63265 0,0.89796 1.92857,3.56122 4.28572,5.91837 5.90875,5.90875 6.23125,67.27749 0.37908,72.13437 -6.39875,5.31048 -9.041319,-1.23698 -16.017081,-39.68539 -6.861392,-37.81801 -9.962235,-47.67269 -12.586289,-40 -0.80614,2.35714 -4.249306,19.71428 -7.65148,38.57143 -3.402171,18.85714 -7.971923,37.13333 -10.155,40.61376 -5.556396,8.85842 -5.217266,9.38624 6.030766,9.38624 6.984125,0 10,-1.29252 10,-4.28572 z m 97.142854,0.30568 c 0,-2.18901 -1.92857,-4.72009 -4.28571,-5.62461 -5.76471,-2.21213 -6.47587,-71.59668 -0.71429,-69.68909 1.96429,0.65035 4.71839,6.5432 6.12024,13.09524 3.20314,14.97106 8.8793,16.0294 6.4279,1.1985 -0.97403,-5.89286 -1.78511,-13.60715 -1.80241,-17.14286 -0.029,-5.93466 -1.32294,-6.42857 -16.84107,-6.42857 -18.70871,0 -20.21475,1.74924 -20.29421,23.57143 -0.0514,14.12036 4.45912,13.75241 6.74622,-0.55033 0.99071,-6.19554 3.0836,-12.05714 4.65088,-13.02577 1.83692,-1.13528 2.8496,10.99073 2.8496,34.12176 0,22.01718 -1.10405,35.88291 -2.85715,35.88291 -1.57143,0 -2.85714,1.92857 -2.85714,4.28571 0,3.09524 3.1746,4.28572 11.42857,4.28572 7.86385,0 11.42857,-1.24143 11.42857,-3.98004 z"
       style="fill:#000000;stroke-width:2.85714;fill-opacity:0" />
    <path
       d="M 17.142578,45.714844 V 311.42773 h 49.097656 c 9.254957,-2.41664 18.762416,-5.2643 32.8125,-9.1289 15.483946,-2.8602 30.779836,-7.06967 46.453126,-8.58008 14.61327,-1.40827 29.36254,-0.26704 44.04297,-0.14063 29.79841,0.25658 53.53897,0.90582 83.02344,3.00391 7.40458,0.52691 14.75055,1.75836 22.1582,2.24024 7.45325,0.48485 14.9307,0.43887 22.39648,0.6582 11.92593,-1.13524 23.88699,-1.94474 35.77735,-3.40625 49.70184,-6.10914 87.0056,-13.71572 138.26953,-17.64453 24.4967,-1.8774 49.11176,-1.59215 73.66992,-2.30664 28.53146,-0.8301 39.18348,-1.2785 47.87305,-1.29688 11.17229,-0.0236 19.10119,0.66219 57.61914,2.15625 45.28318,5.79766 52.86407,5.77481 89.66406,13.83203 V 45.714844 Z M 384.5918,153.01562 c 3.14064,-0.0296 6.28334,0.17838 9.35742,0.74024 2.17801,0.39808 4.15479,1.45457 6.13476,2.50195 4.31104,0.79813 8.79171,2.22049 14.5,4.9375 5.43606,2.58744 10.62643,5.97858 14.87696,10.24219 4.87208,4.88705 8.85446,11.75268 11.17773,18.96094 1.53972,2.83872 2.41939,6.31602 2.28906,11.06836 -0.01,0.35397 -0.0501,0.70222 -0.10351,1.04882 0.0295,1.02692 0.0305,2.04655 -0.0312,3.04493 -0.37674,6.07806 -4.21192,11.42682 -6.31836,17.14062 -3.68084,3.09783 -6.91682,6.82103 -11.04297,9.29492 -10.91373,6.54351 -14.20159,5.86976 -25.30664,7.77539 -9.29409,1.59488 -12.29878,4.24502 -21.11328,-2.39648 -0.337,-0.25392 -0.65026,-0.5337 -0.94531,-0.82812 -2.48609,0.62159 -5.08502,0.79174 -8.01758,-0.23243 -6.44211,-2.24984 -7.12864,-7.51385 -8.00391,-12.57422 -0.79899,-0.25893 -1.59859,-0.54353 -2.40039,-0.87695 -8.01147,-3.3315 -11.10723,-17.07567 -13.5625,-23.7793 -1.26009,-12.5406 -4.00687,-19.35606 4.31445,-31.14453 0.8627,-1.22214 1.74716,-2.33019 2.6504,-3.35742 0.67501,-3.7678 3.76903,-6.59447 8.4707,-6.82031 5.0685,-2.72066 10.79225,-3.87614 17.43945,-4.46094 1.86781,-0.16432 3.75038,-0.2674 5.63477,-0.28516 z"
       transform="scale(0.26458333)"
       style="fill:#000000;fill-opacity:0;stroke-width:0.999999"
       id="rect55" />
    <path
       d="M 17.142578,45.714844 V 311.42773 h 49.097656 c 9.254957,-2.41664 18.762416,-5.2643 32.8125,-9.1289 15.483946,-2.8602 30.779836,-7.06967 46.453126,-8.58008 14.61327,-1.40827 29.36254,-0.26704 44.04297,-0.14063 29.79841,0.25658 53.53897,0.90582 83.02344,3.00391 7.40458,0.52691 14.75055,1.75836 22.1582,2.24024 7.45325,0.48485 14.9307,0.43887 22.39648,0.6582 11.92593,-1.13524 23.88699,-1.94474 35.77735,-3.40625 49.70184,-6.10914 87.0056,-13.71572 138.26953,-17.64453 24.4967,-1.8774 49.11176,-1.59215 73.66992,-2.30664 28.53146,-0.8301 39.18348,-1.2785 47.87305,-1.29688 11.17229,-0.0236 19.10119,0.66219 57.61914,2.15625 45.28318,5.79766 52.86407,5.77481 89.66406,13.83203 V 45.714844 Z M 384.5918,153.01562 c 3.14064,-0.0296 6.28334,0.17838 9.35742,0.74024 2.17801,0.39808 4.15479,1.45457 6.13476,2.50195 4.31104,0.79813 8.79171,2.22049 14.5,4.9375 5.43606,2.58744 10.62643,5.97858 14.87696,10.24219 4.87208,4.88705 8.85446,11.75268 11.17773,18.96094 1.53972,2.83872 2.41939,6.31602 2.28906,11.06836 -0.01,0.35397 -0.0501,0.70222 -0.10351,1.04882 0.0295,1.02692 0.0305,2.04655 -0.0312,3.04493 -0.37674,6.07806 -4.21192,11.42682 -6.31836,17.14062 -3.68084,3.09783 -6.91682,6.82103 -11.04297,9.29492 -10.91373,6.54351 -14.20159,5.86976 -25.30664,7.77539 -9.29409,1.59488 -12.29878,4.24502 -21.11328,-2.39648 -0.337,-0.25392 -0.65026,-0.5337 -0.94531,-0.82812 -2.48609,0.62159 -5.08502,0.79174 -8.01758,-0.23243 -6.44211,-2.24984 -7.12864,-7.51385 -8.00391,-12.57422 -0.79899,-0.25893 -1.59859,-0.54353 -2.40039,-0.87695 -8.01147,-3.3315 -11.10723,-17.07567 -13.5625,-23.7793 -1.26009,-12.5406 -4.00687,-19.35606 4.31445,-31.14453 0.8627,-1.22214 1.74716,-2.33019 2.6504,-3.35742 0.67501,-3.7678 3.76903,-6.59447 8.4707,-6.82031 5.0685,-2.72066 10.79225,-3.87614 17.43945,-4.46094 1.86781,-0.16432 3.75038,-0.2674 5.63477,-0.28516 z"
       transform="scale(0.26458333)"
       style="fill:#000000;fill-opacity:0;stroke-width:0.999999"
       id="rect57" />
    <path
       d="m 83.009766,273.30664 -34.154297,24.81445 c 24.642915,-0.84971 49.304917,-0.73353 73.958981,-0.74023 7.5182,-1.548 15.05953,-2.92664 22.69141,-3.66211 14.61327,-1.40827 29.36254,-0.26704 44.04297,-0.14063 29.79841,0.25658 53.53897,0.90582 83.02344,3.00391 7.40458,0.52691 14.75055,1.75836 22.1582,2.24024 7.45325,0.48485 14.9307,0.43887 22.39648,0.6582 11.92593,-1.13524 23.88699,-1.94474 35.77735,-3.40625 6.45254,-0.79312 12.6831,-1.61304 18.77539,-2.44531 -15.30135,-1.34095 -30.54946,-3.20987 -45.69922,-5.9336 -3.86533,-0.54643 -25.47271,-3.62122 -29.04688,-4.04101 -20.02763,-2.35225 -40.20626,-3.4478 -60.13476,-6.67578 -7.4085,-1.00117 -19.34968,-2.78963 -26.98633,-3.17383 -17.09815,-0.86023 -34.32636,0.98738 -51.43359,0.24219 -25.12326,-0.0212 -50.25782,0.17532 -75.369144,-0.74024 z"
       transform="scale(0.26458333)"
       style="fill:#000000;fill-opacity:0;stroke-width:0.999999"
       id="path59" />
    <path
       transform="scale(0.26458333)"
       d="M 56.982422,56.142578 22.771484,81 c 27.638254,-1.452 54.665481,6.227299 80.968746,13.751953 33.72895,10.221177 66.0396,24.404297 98.4336,38.142577 27.1731,11.34347 53.31514,24.94116 80.18359,36.93945 20.7241,8.77246 41.92427,16.29879 63.09375,23.90235 -1.20458,-9.35759 -2.10629,-15.80717 4.94531,-25.79688 0.86731,-1.22866 1.75578,-2.34328 2.66407,-3.375 0.0971,-0.53261 0.23213,-1.05095 0.42383,-1.54101 -12.91089,-4.4794 -25.67785,-9.35349 -38.12891,-15.05078 -26.62654,-12.68025 -53.16875,-25.5574 -80.36914,-36.99024 C 202.32915,97.559239 169.9027,83.457857 136.31445,72.455078 110.42862,64.937488 84.060091,57.337238 56.982422,56.142578 Z M 442.23633,194.53125 c 0.50756,1.98511 0.765,4.25182 0.6914,6.93555 -0.01,0.35397 -0.0501,0.70221 -0.10351,1.04882 0.0295,1.02692 0.0306,2.04655 -0.0312,3.04493 -0.31879,5.14311 -3.10773,9.76557 -5.23633,14.52734 3.01226,0.0363 6.01704,0.0714 8.99414,0.13867 12.67518,0.91605 25.53595,0.60335 38.13867,2.46289 5.50942,0.81292 8.74828,1.82143 14.16797,3.23633 8.30642,2.96555 4.33061,1.34885 11.95313,4.80078 l 34.63086,-22.95508 c -8.01914,-3.71783 -3.84419,-1.96867 -12.54493,-5.19921 -4.59794,-1.34233 -9.8377,-3.03163 -14.59375,-3.79102 -12.85183,-2.05205 -26.08308,-0.95846 -39,-2.23242 -12.27789,-0.30389 -24.84952,-0.20169 -37.0664,-2.01758 z"
       style="fill:#000000;fill-opacity:0;stroke-width:0.999999"
       id="path61" />
    <path
       d="m 127.56836,270.04883 -3.51953,27.08594 c 7.10968,-1.44417 14.24257,-2.72077 21.45703,-3.41602 1.80716,-0.17415 3.6168,-0.30919 5.42773,-0.41211 z m 34.21484,61.25586 c -5.39505,-2.9e-4 -10.78262,0.1682 -16.15039,0.6914 -9.04528,0.88167 -17.90753,2.99734 -26.77343,5.08594 l -7.43165,57.20313 -85.498042,43.81445 c 30.293167,4.49416 60.58402,9.00819 90.974612,12.76953 45.45349,5.62562 96.65974,11.44613 150.40625,17.24414 6.47476,-4.55841 13.15625,-8.8301 19.96289,-12.92773 l -4.38282,-8.03907 56.33985,-111.21679 c -1.65399,0.14788 -3.30856,0.29282 -4.96289,0.4375 l -117.90625,22.0625 -26.69727,-26.57227 c -0.3002,-0.003 -0.58548,-0.007 -0.88672,-0.01 -8.98837,-0.0736 -18.00238,-0.54249 -26.99414,-0.54297 z m -96.734372,151.03906 48.054692,22.82031 4.81836,29.97266 c 25.75414,0.0811 51.53323,0.16437 77.60742,0.27148 9.8556,-11.50114 20.36237,-22.51483 31.35742,-33.04882 C 188.36045,498.10513 149.86139,493.60801 111.4082,488.75 95.930297,486.79458 80.482654,484.62051 65.048828,482.34375 Z m 226.382812,26.92578 c -4.72451,6.27644 -8.69419,13.25562 -11.73242,21.04297 -0.66667,1.70874 -1.2967,3.56273 -1.91016,5.48047 3.94605,0.0203 7.90596,0.0435 11.85547,0.0645 5.47819,-3.29847 10.9789,-6.55543 16.51367,-9.74609 4.67483,-3.43663 9.42091,-6.84092 14.20508,-10.22852 l -2.10351,-3.85742 c -8.94342,-0.91082 -17.88642,-1.82688 -26.82813,-2.75586 z m -167.35352,64.1543 8.91211,55.43164 7.75391,-8.19922 c 5.7645,-13.04762 12.47417,-25.63919 19.95898,-37.79297 -6.02492,-3.0899 -12.03559,-6.20941 -18.01953,-9.38086 -6.21025,-0.0187 -12.40225,-0.0391 -18.60547,-0.0586 z"
       transform="scale(0.26458333)"
       inkscape:transform-center-y="0.23307686"
       inkscape:transform-center-x="4.5443166"
       style="fill:#000000;fill-opacity:0;stroke-width:0.999999"
       id="path65" />
    <g
       inkscape:corner7="-0.33541799 : -0.0338089 : 0.25 : 1"
       inkscape:corner0="0.83176865 : 0.08020678 : 0 : 1"
       inkscape:perspectiveID="#perspective67"
       style="fill:#000000;fill-opacity:0"
       id="g69"
       sodipodi:type="inkscape:box3d">
      <path
         clip-path="url(#clipPath3097)"
         d="m 650.87109,483.29492 c -11.42599,1.33044 -22.8298,2.86014 -34.20117,4.53906 -17.0739,2.5209 -32.61685,4.83508 -47.27539,7.08399 0.35576,1.18317 0.69702,2.37207 1.02539,3.56641 28.13029,2.6536 54.69448,5.11214 80.45117,7.47851 z m -359.43945,25.97461 c -1.96573,2.61145 -3.79271,5.3525 -5.48437,8.21485 v 18.35351 c 1.23298,0.007 2.46556,0.013 3.69726,0.0195 5.47819,-3.29847 10.9789,-6.55543 16.51367,-9.74609 6.1383,-4.51248 12.36975,-8.98143 18.69727,-13.41016 -0.22934,-0.0232 -0.45027,-0.0451 -0.67969,-0.0684 -10.91611,-1.10492 -21.83066,-2.22945 -32.74414,-3.36328 z m 156.51758,26.17969 c -9.71086,-0.0307 -19.19707,0.37721 -28.29102,1.21875 11.03815,0.0802 22.08473,0.16738 33.13086,0.25391 0.1744,-0.46717 0.34983,-0.9289 0.52344,-1.39844 -1.7919,-0.0345 -3.5847,-0.0686 -5.36328,-0.0742 z m -118.5332,38.87695 c -7.5636,5.60611 -15.15028,11.16063 -23.05079,15.99414 -5.99155,13.52619 -14.40245,26.33807 -20.41796,39.85742 v 42.42969 c 54.82391,-25.03781 105.55084,-55.20451 150.49609,-96.94922 0.0938,-0.20046 0.18771,-0.40104 0.28125,-0.60156 -35.72248,-0.27454 -71.48156,-0.52002 -107.30859,-0.73047 z m 159.23437,1.14844 c -3.42007,4.63046 -7.0974,9.05687 -11.14648,13.18945 -3.06816,3.13143 -6.23728,6.23366 -9.45899,9.31836 -1.21985,2.46959 -2.46484,4.94334 -3.72461,7.41797 4.89897,-0.8267 9.66932,-1.52629 14.26953,-2.08789 15.271,-1.86433 32.78023,-6.51223 46.14063,1.11523 1.93355,1.10386 3.70928,2.25942 5.33789,3.46289 3.54592,-9.99933 6.22863,-20.81266 7.9082,-31.96093 -16.44277,-0.15866 -32.88519,-0.31266 -49.32617,-0.45508 z m 85.84375,0.82422 c -4.56855,32.54952 -16.30001,63.95954 -33.00781,88.39844 -0.0727,0.10635 -0.1497,0.2102 -0.22266,0.3164 -2.9066,9.13818 -6.67493,18.04317 -9.77929,25.99024 33.29107,-20.90319 58.83971,-42.2813 101.0996,-78.01758 -9.49894,-14.60332 -20.0945,-27.3047 -31.37109,-36.40039 -8.9082,-0.0979 -17.8151,-0.19438 -26.71875,-0.28711 z m -71.65039,51.96875 c -2.47904,0.0365 -5.17381,0.59956 -6.96289,1.31836 -4.78159,1.92106 -5.57236,9.73581 -10.45313,11.38867 -19.09446,6.4663 -33.74831,9.50236 -46.43164,11.60937 -6.78994,12.36636 -13.93141,25.38863 -21.90429,40.4004 -22.3925,19.97375 -40.72035,43.35377 -68.66797,52.57226 l 6.85156,3.62305 c 26.04475,-11.76765 51.88218,-23.90098 75.85352,-39.32617 27.10572,-17.4421 55.08725,-36.28131 75.62304,-61.03516 1.48144,-5.6921 2.43919,-11.43743 2.20899,-17.29883 -0.0973,-2.47707 -2.92986,-3.29887 -6.11719,-3.25195 z m -110.3125,33.8125 c -14.9566,5.25978 -31.82908,14.54348 -55.84375,33.35742 -7.18811,5.63142 -13.57595,12.08813 -19.53906,18.98438 5.313,0.53744 11.03888,-1.47294 16.13281,-3.23243 25.55108,-8.82565 38.27612,-27.38938 57.82031,-46.30664 0.48711,-0.96355 0.9472,-1.85189 1.42969,-2.80273 z m 211.12305,46.43554 c -17.75275,9.53891 -36.30062,18.16773 -55.29492,26.47071 -0.66387,0.29019 -1.40526,0.59952 -2.08008,0.89258 31.16087,-2.80813 67.74043,-5.73402 104.59179,-8.48243 v -14.93164 c -1.92552,-0.0745 -3.86974,-0.0712 -5.66406,-0.006 -0.84187,0.3927 -1.80069,0.82543 -2.88672,1.30274 -2.70587,1.18926 -5.18219,3.91728 -8.11719,3.56836 -1.82467,-0.21695 1.93971,-3.5388 3.69141,-4.09375 1.11734,-0.35401 3.97385,-0.65578 7.3125,-0.77735 21.8395,-10.18702 -35.93148,7.02725 -41.55273,-3.94336 z m 47.21679,57.22461 c -58.80998,4.33011 -117.87775,7.09218 -176.08789,16.40625 -4.9966,0.7995 -9.98338,1.65225 -14.96484,2.53125 -4.58306,4.1264 -9.35569,8.20774 -14.27734,12.24805 l 109.13281,57.72656 c 24.04929,-15.09718 45.88469,-34.07204 69.41406,-50.08007 8.34235,-12.11357 18.1353,-23.42133 26.7832,-35.36524 z m 0,63.48047 c -1.86548,2.36116 -3.70355,4.73758 -5.47851,7.15235 -18.13522,11.97915 -35.40193,25.52617 -53.19141,38.1289 l 21.39844,11.31836 c 10.16244,-11.5783 20.89365,-23.78556 32.84766,-36.66211 1.3222,-4.61342 2.82544,-9.20122 4.42382,-13.77539 z"
         transform="scale(0.26458333)"
         style="fill:#e9e9ff;fill-rule:evenodd;stroke:none;stroke-width:3.77953;stroke-linejoin:round"
         id="path81" />
      <path
         d="m 216.64844,501.21094 v 11.25586 c 3.36299,-3.41531 6.7732,-6.78765 10.23828,-10.10742 -3.4135,-0.37694 -6.82522,-0.76761 -10.23828,-1.14844 z m 69.29883,16.27344 c -2.37415,4.01711 -4.47394,8.28086 -6.24805,12.82812 -0.66667,1.70874 -1.2967,3.56273 -1.91016,5.48047 2.71543,0.014 5.43756,0.0299 8.15821,0.0449 z m -69.29883,56.27343 v 2.08789 c 1.13598,-0.69071 2.26708,-1.39082 3.4082,-2.07226 -1.13699,-0.005 -2.27274,-0.0105 -3.4082,-0.0156 z m 69.29883,56.41992 c -3.05269,6.86064 -5.49964,13.90008 -6.67774,21.31446 -1.28347,8.07754 -0.9183,16.15741 0.90235,23.74804 1.93433,-0.86641 3.85109,-1.75399 5.77539,-2.63281 z m -57.15039,13.50586 c -4.11092,4.27997 -8.14982,8.6293 -12.14844,13.01953 v 44.18946 c 4.24499,-1.38348 8.45811,-2.86554 12.625,-4.48438 1.26053,-0.48971 2.5144,-0.98585 3.77148,-1.47851 -2.61471,-15.33843 -4.01602,-32.87737 -4.24804,-51.2461 z"
         transform="scale(0.26458333)"
         style="fill:#353564;fill-rule:evenodd;stroke:none;stroke-width:3.77953;stroke-linejoin:round"
         id="path71" />
      <path
         clip-path="url(#clipPath3107)"
         d="m 244.72656,731.30273 c -2.5409,0.879 -5.07206,1.73768 -7.59375,2.56836 -2.41502,0.79556 -7.30059,2.49111 -13.83789,4.55469 l 21.1211,16.75781 c 1.44369,-4.59571 2.79866,-9.20174 3.97265,-13.82812 0.38851,-0.43537 0.76625,-0.88234 1.15235,-1.32031 -1.67582,-2.8841 -3.28767,-5.79289 -4.81446,-8.73243 z m 103.69727,14.25391 c -5.75946,1.89975 -11.91791,3.21229 -18.61524,3.75391 -10.8598,0.87823 -22.54122,0.10617 -32.92578,-3.54102 1.38781,2.10164 2.72957,4.22283 3.98047,6.38086 9.51453,1.60252 18.92968,5.6076 28.54492,4.80664 3.66018,-0.3049 7.30972,-0.6651 10.95313,-1.05664 4.97254,-2.23813 9.94539,-4.47574 14.91406,-6.7207 z m -73.00781,29.06055 c -0.35871,1.42613 -0.73661,2.85088 -1.11914,4.27539 l 0.89257,0.70703 c 2.24734,-0.43427 4.4443,-0.86782 6.48243,-1.28906 -2.07821,-1.2573 -4.16137,-2.49984 -6.25586,-3.69336 z m 170.125,22.30859 c -23.64511,19.4109 -50.93269,37.79621 -79.36914,54.86133 l 61.75976,49 c 2.50109,-0.12155 5.00732,-0.23666 7.50586,-0.36133 37.00551,-9.23462 71.77161,-21.57274 96.79688,-33.36133 7.75618,-3.65368 15.19415,-7.8638 22.43945,-12.41211 z m 146.66015,77.57617 c -8.87109,6.28462 -17.86938,12.33855 -27.17578,17.83789 15.49183,-1.18439 30.88864,-2.44731 46.17969,-3.79296 0.78555,-0.89492 1.60201,-1.82363 2.39453,-2.72657 z m 51,49.51953 c -5.03082,0.48272 -10.07059,0.95779 -15.12695,1.42188 -25.72258,28.20359 -49.03558,52.69631 -77.72266,72.47461 l 46.79102,37.12503 z m -70.00976,6.06641 c -32.91966,2.56052 -66.28394,4.75802 -99.94336,6.6543 l 46.08398,36.56445 c 20.53921,-12.35617 37.5281,-26.79966 53.85938,-43.21875 z"
         transform="scale(0.26458333)"
         style="fill:#afafde;fill-rule:evenodd;stroke:none;stroke-width:3.77953;stroke-linejoin:round"
         id="path79" />
      <path
         d="m 597.14258,386.62891 -81.52735,23.84179 c 0.0862,2.27498 0.1432,4.52718 0.17774,6.68164 0.0309,1.92891 0.0344,3.85959 0.0234,5.79102 6.25471,3.8506 11.96958,8.15498 17.17968,12.84375 27.20829,-5.22579 55.72271,-8.05721 87.19141,-8.04102 8.48318,0.004 16.58075,0.26553 24.30469,0.94922 z m -129.375,58.71484 c -7.89967,-0.006 -16.03232,0.98662 -23.82617,0.52734 -32.23398,6.61132 -74.33687,12.9303 -108.70899,29.41602 14.11882,1.4643 28.28433,2.91905 42.52344,4.36523 26.18776,-13.22153 62.04498,-26.95704 94.01758,-27.7207 1.88132,-0.62408 3.76398,-1.23547 5.64648,-1.83789 0.2772,-1.35192 0.51892,-2.64765 0.75391,-3.92187 -3.38862,-0.62061 -6.8734,-0.82549 -10.40625,-0.82813 z"
         transform="scale(0.26458333)"
         style="fill:#4d4d9f;fill-rule:evenodd;stroke:none;stroke-width:3.77953;stroke-linejoin:round"
         id="path73" />
      <path
         clip-path="url(#clipPath3117)"
         d="m 597.14258,386.62891 v 41.63086 c 7.51433,-0.34394 15.18791,-0.51772 23.04492,-0.51368 8.48318,0.004 16.58075,0.26553 24.30469,0.94922 z m 53.72851,96.66601 c -11.42599,1.33044 -22.8298,2.86014 -34.20117,4.53906 -6.79236,1.00287 -13.17885,1.95405 -19.52734,2.9004 v 10.24414 c 18.42994,1.72254 36.40033,3.39236 53.72851,4.98437 z m -53.72851,93.24805 v 66.11133 c 10.71059,-8.80381 22.20256,-18.47279 35.4414,-29.66797 -9.49894,-14.60332 -20.0945,-27.3047 -31.37109,-36.40039 -1.35706,-0.0149 -2.71331,-0.0281 -4.07031,-0.043 z m 6.51172,131.97265 c -2.15891,1.16003 -4.32993,2.3053 -6.51172,3.43946 v 19.60742 c 17.46535,-1.41335 35.50317,-2.80676 53.72851,-4.16602 v -14.93164 c -1.92552,-0.0745 -3.86974,-0.0712 -5.66406,-0.006 -0.84187,0.3927 -1.80069,0.82543 -2.88672,1.30274 -2.70587,1.18926 -5.18219,3.91728 -8.11719,3.56836 -1.82467,-0.21695 1.93971,-3.5388 3.69141,-4.09375 1.11734,-0.35401 3.97385,-0.65578 7.3125,-0.77735 21.8395,-10.18702 -35.93148,7.02725 -41.55273,-3.94336 z m 47.21679,57.22461 c -17.89666,1.31771 -35.81539,2.50634 -53.72851,3.76172 v 54.72852 c 8.87869,-6.73271 17.78192,-13.42396 26.94531,-19.6582 8.34235,-12.11357 18.1353,-23.42133 26.7832,-35.36524 z m 0,63.48047 c -1.86548,2.36116 -3.70355,4.73758 -5.47851,7.15235 -16.45127,10.86682 -32.19012,23.01902 -48.25,34.59179 v 18.77735 c 4.69122,-0.39581 9.39072,-0.78418 14.0625,-1.19531 10.85862,-12.37035 22.35595,-25.50796 35.24219,-39.38868 1.3222,-4.61342 2.82544,-9.20122 4.42382,-13.77539 z m -7.66992,94.80078 c -5.03082,0.48272 -10.07059,0.95779 -15.12695,1.42188 -10.53596,11.55218 -20.66967,22.47049 -30.93164,32.70898 v 76.89066 z"
         transform="scale(0.26458333)"
         style="fill:#d7d7ff;fill-rule:evenodd;stroke:none;stroke-width:3.77953;stroke-linejoin:round"
         id="path77" />
      <path
         clip-path="url(#clipPath3127)"
         d="m 597.14258,386.62891 -81.52735,23.84179 c 0.0862,2.27498 0.1432,4.52718 0.17774,6.68164 0.0309,1.92891 0.0344,3.85959 0.0234,5.79102 6.25471,3.8506 11.96958,8.15498 17.17968,12.84375 20.41501,-3.92103 41.56461,-6.49376 64.14649,-7.52734 z m -129.375,58.71484 c -7.89967,-0.006 -16.03232,0.98662 -23.82617,0.52734 -32.23398,6.61132 -74.33687,12.9303 -108.70899,29.41602 14.11882,1.4643 28.28433,2.91905 42.52344,4.36523 26.18776,-13.22153 62.04498,-26.95704 94.01758,-27.7207 1.88132,-0.62408 3.76398,-1.23547 5.64648,-1.83789 0.2772,-1.35192 0.51892,-2.64766 0.75391,-3.92187 -3.38862,-0.62061 -6.8734,-0.82549 -10.40625,-0.82813 z m 129.375,45.39063 c -9.60965,1.43245 -18.92099,2.82934 -27.74805,4.18359 0.35576,1.18317 0.69702,2.37207 1.02539,3.56641 9.20523,0.86834 17.75825,1.65628 26.72266,2.49414 z m -380.49414,10.47656 v 11.25586 c 3.36299,-3.41531 6.7732,-6.78765 10.23828,-10.10742 -3.4135,-0.37694 -6.82522,-0.76761 -10.23828,-1.14844 z m 74.7832,8.05859 c -4.72451,6.27644 -8.69419,13.25562 -11.73242,21.04297 -0.66667,1.70874 -1.2967,3.56273 -1.91016,5.48047 3.94605,0.0203 7.90596,0.0435 11.85547,0.0645 5.47819,-3.29847 10.9789,-6.55543 16.51367,-9.74609 6.1383,-4.51248 12.36975,-8.98143 18.69727,-13.41016 -0.22934,-0.0232 -0.45027,-0.0451 -0.67969,-0.0684 -10.91611,-1.10492 -21.83066,-2.22945 -32.74414,-3.36328 z m 156.51758,26.17969 c -9.71086,-0.0307 -19.19707,0.37721 -28.29102,1.21875 11.03815,0.0802 22.08473,0.16738 33.13086,0.25391 0.1744,-0.46717 0.34983,-0.9289 0.52344,-1.39844 -1.7919,-0.0345 -3.5847,-0.0686 -5.36328,-0.0742 z m -231.30078,38.30859 v 2.08789 c 1.13598,-0.69071 2.26708,-1.39082 3.4082,-2.07226 -1.13699,-0.005 -2.27274,-0.0105 -3.4082,-0.0156 z m 112.76758,0.56836 c -7.5636,5.60611 -15.15028,11.16063 -23.05079,15.99414 -9.03208,20.39029 -23.59609,39.14698 -27.0957,61.17188 -1.28347,8.07754 -0.9183,16.15741 0.90235,23.74804 57.04469,-25.55104 109.74867,-56.3721 156.27148,-99.58203 0.0938,-0.20046 0.18771,-0.40104 0.28125,-0.60156 -35.72248,-0.27454 -71.48156,-0.52002 -107.30859,-0.73047 z m 159.23437,1.14844 c -3.42007,4.63046 -7.0974,9.05687 -11.14648,13.18945 -3.06816,3.13143 -6.23728,6.23366 -9.45899,9.31836 -1.21985,2.46959 -2.46484,4.94334 -3.72461,7.41797 4.89897,-0.8267 9.66932,-1.52629 14.26953,-2.08789 15.271,-1.86433 32.78023,-6.51223 46.14063,1.11523 1.93355,1.10386 3.70928,2.25943 5.33789,3.46289 3.54592,-9.99932 6.22863,-20.81266 7.9082,-31.96093 -16.44277,-0.15866 -32.88519,-0.31266 -49.32617,-0.45508 z m 85.84375,0.82422 c -4.56855,32.54952 -16.30001,63.95954 -33.00781,88.39844 -0.0727,0.10635 -0.1497,0.2102 -0.22266,0.3164 -2.9066,9.13818 -6.67494,18.04317 -9.77929,25.99024 22.8619,-14.35481 42.17937,-29.05068 65.6582,-48.34961 v -66.11133 c -7.55076,-0.0826 -15.10116,-0.16554 -22.64844,-0.24414 z m -71.65039,51.96875 c -2.47904,0.0365 -5.17381,0.59956 -6.96289,1.31836 -4.78159,1.92106 -5.57236,9.73581 -10.45313,11.38867 -19.09446,6.4663 -33.74831,9.50236 -46.43164,11.60937 -6.78994,12.36636 -13.93141,25.38863 -21.90429,40.4004 -27.00715,24.08993 -48.08725,53.15635 -87.28321,56.32617 -10.8598,0.87823 -22.54122,0.10617 -32.92578,-3.54102 1.38781,2.10164 2.72957,4.22283 3.98047,6.38086 9.51453,1.60252 18.92968,5.6076 28.54492,4.80664 3.66018,-0.3049 7.30972,-0.6651 10.95313,-1.05664 31.03762,-13.96995 62.22313,-27.67895 90.76758,-46.04687 27.10572,-17.4421 55.08725,-36.28131 75.62304,-61.03516 1.48144,-5.6921 2.43919,-11.43743 2.20899,-17.29883 -0.0973,-2.47707 -2.92986,-3.29887 -6.11719,-3.25195 z m -274.04687,15.41601 c -4.11092,4.27997 -8.14982,8.6293 -12.14844,13.01953 v 44.18946 c 4.24499,-1.38348 8.45811,-2.86554 12.625,-4.48438 1.26053,-0.48971 2.5144,-0.98585 3.77148,-1.47851 -2.61471,-15.33843 -4.01602,-32.87737 -4.24804,-51.2461 z m 163.73437,18.39649 c -14.9566,5.25978 -31.82908,14.54348 -55.84375,33.35742 -7.18811,5.63142 -13.57595,12.08813 -19.53906,18.98438 5.313,0.53743 11.03888,-1.47294 16.13281,-3.23243 25.55108,-8.82565 38.27612,-27.38938 57.82031,-46.30664 0.48711,-0.96355 0.9472,-1.85189 1.42969,-2.80273 z m 204.61133,49.875 c -15.75919,8.19204 -32.0988,15.73799 -48.7832,23.03125 -0.66387,0.29019 -1.40526,0.59952 -2.08008,0.89258 15.74984,-1.41933 33.01395,-2.87199 50.86328,-4.31641 z m -352.41602,19.34765 c -2.5409,0.879 -5.07206,1.73768 -7.59375,2.56836 -2.41502,0.79556 -7.30059,2.49111 -13.83789,4.55469 l 21.1211,16.75781 c 1.44369,-4.59571 2.79866,-9.20174 3.97265,-13.82812 0.38851,-0.43537 0.76625,-0.88234 1.15235,-1.32031 -1.67582,-2.8841 -3.28767,-5.79289 -4.81446,-8.73243 z m 352.41602,38.19922 c -40.95095,2.86991 -81.86336,6.16486 -122.35938,12.64453 -4.9966,0.7995 -9.98338,1.65225 -14.96484,2.53125 -26.60149,23.95086 -59.29108,46.49221 -93.64648,67.10938 l 61.75976,49 c 2.50109,-0.12155 5.00732,-0.23666 7.50586,-0.36133 37.00551,-9.23462 71.77161,-21.57274 96.79688,-33.36133 23.47494,-11.05828 44.12014,-27.0704 64.9082,-42.83398 z m -321.72656,5.11524 c -0.35871,1.42613 -0.73662,2.85088 -1.11914,4.27539 l 0.89257,0.70703 c 2.24734,-0.43427 4.4443,-0.86782 6.48243,-1.28906 -2.07821,-1.2573 -4.16137,-2.49984 -6.25586,-3.69336 z m 321.72656,96.34765 c -10.47224,7.54631 -21.07789,14.85165 -32.11719,21.375 10.75871,-0.82253 21.45374,-1.69797 32.11719,-2.59765 z m -23.95117,59.12305 c -32.91966,2.56052 -66.28394,4.75802 -99.94336,6.6543 l 46.08398,36.56445 c 20.53921,-12.35617 37.5281,-26.79966 53.85938,-43.21875 z m 23.95117,28.06445 c -14.79169,14.75785 -29.85416,28.08852 -46.79102,39.76563 l 46.79102,37.12503 z"
         transform="scale(0.26458333)"
         style="fill:#8686bf;fill-rule:evenodd;stroke:none;stroke-width:3.77953;stroke-linejoin:round"
         id="path75" />
    </g>
    <path
       clip-path="url(#clipPath3139)"
       d="m 23.203125,311.42773 c -3.35775,0 -6.060547,2.7028 -6.060547,6.06055 v 2.49219 c 5.051796,-0.45883 10.11331,-0.84447 15.123047,-1.625 14.486245,-2.257 24.085372,-4.34547 33.974609,-6.92774 z m 591.441405,1.66211 c -8.91451,-0.0812 -17.48331,0.36439 -48.7832,1.29688 -24.49761,0.72983 -49.05163,0.42779 -73.48828,2.30273 -45.45963,3.48797 -89.07797,11.75743 -134.16602,17.29297 -12.44211,1.52754 -24.95566,2.40133 -37.43359,3.60156 -8.9792,-0.16476 -17.97084,0.008 -26.9375,-0.49414 -8.36634,-0.46843 -16.66283,-1.82629 -25.02149,-2.41601 -28.0344,-1.97789 -51.72943,-2.59426 -80.03711,-2.82617 -14.3814,-0.11781 -28.83048,-1.24679 -43.14453,0.14843 -13.3186,1.29819 -26.24088,5.26311 -39.36133,7.89453 -29.263565,8.15226 -37.359481,11.35399 -66.611324,16.02149 -7.45735,1.18992 -15.014506,1.64258 -22.517578,2.50391 v 78.39257 c 33.223221,4.91686 66.433216,9.9356 99.761722,14.06055 45.45349,5.62562 96.65974,11.44613 150.40625,17.24414 31.84409,-22.41912 68.51581,-38.13556 102.00976,-58.26367 7.44847,-2.8755 102.76098,-59.02862 136.39258,-29.46484 9.54467,8.39024 9.87636,24.0611 10.08008,36.76757 0.0309,1.92891 0.0344,3.85959 0.0234,5.79102 6.25471,3.8506 11.96958,8.15498 17.17968,12.84375 27.20829,-5.22579 55.72271,-8.05721 87.19141,-8.04102 28.50724,0.0147 52.76564,2.81791 72.51953,15.44727 39.1436,1.38393 77.75282,13.19085 77.78125,56.11719 0.004,5.95857 -1.02939,11.67099 -2.79101,17.20898 8.12168,0.71899 16.24482,1.42522 24.36718,2.13672 1.01312,-1.08244 1.63672,-2.5342 1.63672,-4.14063 V 338.70703 c -10.72796,-2.81224 -21.37503,-5.95144 -32.19531,-8.38281 -45.22201,-10.16166 -48.56781,-9.38227 -95.99805,-15.36914 -32.68775,-1.17553 -41.94877,-1.78399 -50.86328,-1.86524 z m -138.10937,96.02735 c -0.13819,0.15457 -0.29406,0.29648 -0.48047,0.41211 -0.85685,0.53149 -1.71921,1.05082 -2.58594,1.5625 1.27863,0.12859 2.55687,0.26253 3.83203,0.40039 -0.23834,-0.78187 -0.49385,-1.57362 -0.76562,-2.375 z m -8.76758,36.22656 c -7.89967,-0.006 -16.03232,0.98662 -23.82617,0.52734 -32.23398,6.61132 -74.33687,12.9303 -108.70899,29.41602 14.11882,1.4643 28.28433,2.91905 42.52344,4.36523 26.18776,-13.22153 62.04498,-26.95704 94.01758,-27.7207 1.88132,-0.62408 3.76398,-1.23547 5.64648,-1.83789 0.2772,-1.35192 0.51892,-2.64765 0.75391,-3.92187 -3.38862,-0.62061 -6.8734,-0.82549 -10.40625,-0.82813 z M 17.142578,475.04883 v 39.46679 c 0,3.35775 2.702797,6.06055 6.060547,6.06055 H 208.85156 c 5.84053,-6.2229 11.85745,-12.29813 18.03516,-18.21679 C 188.36045,498.10513 149.86139,493.60801 111.4082,488.75 79.905676,484.77009 48.524601,479.90778 17.142578,475.04883 Z m 709.748042,1.60742 c -1.3345,-0.0251 -2.76418,0.0419 -4.23242,0.15234 0.12047,0.22191 0.24542,0.43044 0.36524,0.6543 4.25418,7.94868 6.78245,16.56637 8.6875,25.42578 2.5408,-6.48698 4.18823,-13.17574 4.30273,-20.20898 0.0737,-4.52828 -3.83642,-5.9238 -9.12305,-6.02344 z m -46.90234,3.73437 c -21.18161,1.71818 -42.30271,4.34051 -63.31836,7.44336 -17.0739,2.5209 -32.61685,4.83508 -47.27539,7.08399 0.35576,1.18317 0.69702,2.37207 1.02539,3.56641 44.772,4.22345 86.77229,8.08762 125.25391,11.57812 -2.26518,-7.6274 -4.88185,-15.07286 -9.3086,-21.58594 -2.08048,-3.06103 -4.20626,-5.73033 -6.37695,-8.08594 z m -388.55664,28.87891 c -2.66215,3.53663 -5.07534,7.30491 -7.22656,11.30664 h 29.57617 c 3.66181,-2.63781 7.34631,-5.26578 11.07422,-7.875 -0.22934,-0.0232 -0.45027,-0.0451 -0.67969,-0.0684 -10.91611,-1.10492 -21.83066,-2.22945 -32.74414,-3.36328 z"
       transform="scale(0.26458333)"
       style="fill:none;fill-opacity:1;fill-rule:evenodd;stroke:none;stroke-width:5.87717;stroke-miterlimit:4;stroke-dasharray:none;stroke-dashoffset:0;stroke-opacity:1;paint-order:normal"
       id="rect3002" />
  </g>
</svg>
